#!OML:ASF F:\VICON\USERDATA\INSTALL\rory3\rory3.ASF
:FULLY-SPECIFIED
:DEGREES
1
root 0.758362 18.9924 -0.968601 1.38078 -4.97852 1.00054
lowerback 3.25046 0.549096 -2.05547
upperback -0.110625 0.622732 -1.49553
thorax -1.94123 0.323681 -0.412394
lowerneck -8.22299 -5.77803 -9.587
upperneck 11.4431 -7.78156 9.36863
head 5.53927 -3.63626 3.91302
rclavicle -3.75206e-015 1.59028e-015
rhumerus -32.5907 -1.24393 -83.8
rradius 25.3732
rwrist 22.1592
rhand -24.4243 -5.48723
rfingers 7.12502
rthumb 2.06759 -35.457
lclavicle -3.75206e-015 1.59028e-015
lhumerus -34.9188 23.4198 71.2128
lradius 19.8219
lwrist -9.12272
lhand -28.4752 34.4878
lfingers 7.12502
lthumb -1.84489 64.4596
rfemur -0.918319 20.2562 18.9302
rtibia 13.5669
rfoot -12.7996 -19.7939
rtoes -3.0317
lfemur 0.115347 -7.52763 -21.1529
ltibia 10.7787
lfoot -10.4757 15.4164
ltoes -8.64907
2
root 0.759309 18.994 -0.967607 1.42684 -5.00602 1.00398
lowerback 3.1998 0.560781 -2.07306
upperback -0.109039 0.639621 -1.48058
thorax -1.91168 0.332167 -0.387455
lowerneck -8.33509 -5.65464 -9.44522
upperneck 11.5404 -7.6204 9.30415
head 5.56446 -3.55204 3.88152
rclavicle 1.72197e-014 -1.47101e-014
rhumerus -32.5922 -1.14582 -83.8113
rradius 25.4871
rwrist 21.8446
rhand -24.0875 -5.43596
rfingers 7.12502
rthumb 2.39281 -35.4023
lclavicle 1.72197e-014 -1.47101e-014
lhumerus -34.9487 23.3366 71.3039
lradius 19.9566
lwrist -9.03009
lhand -28.452 34.2341
lfingers 7.12502
lthumb -1.82244 64.206
rfemur -0.958609 20.3576 18.9146
rtibia 13.577
rfoot -12.8304 -19.8393
rtoes -2.92628
lfemur 0.0941353 -7.605 -21.1574
ltibia 10.7031
lfoot -10.4489 15.5069
ltoes -8.42123
3
root 0.762512 18.9963 -0.967831 1.50365 -4.99213 0.994084
lowerback 3.16701 0.555265 -2.0401
upperback -0.145278 0.63395 -1.46906
thorax -1.93021 0.329346 -0.393743
lowerneck -8.19944 -5.48523 -9.34606
upperneck 11.436 -7.40164 9.27056
head 5.48223 -3.44763 3.87776
rclavicle 2.85753e-015 -5.56597e-015
rhumerus -32.634 -1.00076 -83.8308
rradius 25.5824
rwrist 21.5559
rhand -23.8367 -5.35033
rfingers 7.12502
rthumb 2.6351 -35.3138
lclavicle 2.85753e-015 -5.56597e-015
lhumerus -35.0085 23.1984 71.3981
lradius 20.0593
lwrist -8.81221
lhand -28.4335 33.9418
lfingers 7.12502
lthumb -1.80457 63.9139
rfemur -1.0057 20.3534 18.8833
rtibia 13.5284
rfoot -12.8723 -19.8241
rtoes -2.65417
lfemur -0.0301889 -7.62964 -21.1503
ltibia 10.7982
lfoot -10.5283 15.5124
ltoes -7.97581
4
root 0.765811 18.9973 -0.971323 1.54719 -4.99554 0.985379
lowerback 3.20462 0.553289 -2.00985
upperback -0.164334 0.630936 -1.46286
thorax -1.97059 0.327889 -0.404735
lowerneck -8.01676 -5.2913 -9.31193
upperneck 11.2032 -7.14936 9.3364
head 5.35546 -3.32544 3.91967
rclavicle -5.39203e-015 1.98785e-015
rhumerus -32.6306 -0.845345 -83.8743
rradius 25.6322
rwrist 21.3243
rhand -23.7092 -5.10301
rfingers 7.12502
rthumb 2.75824 -35.0649
lclavicle -5.39203e-015 1.98785e-015
lhumerus -35.0324 23.1639 71.4494
lradius 20.1401
lwrist -8.7298
lhand -28.5111 33.6919
lfingers 7.12502
lthumb -1.87955 63.6634
rfemur -1.06608 20.3565 18.8605
rtibia 13.491
rfoot -12.7809 -19.8675
rtoes -2.72614
lfemur -0.0890625 -7.56173 -21.1474
ltibia 10.841
lfoot -10.6168 15.456
ltoes -6.9723
5
root 0.768996 18.9987 -0.974665 1.61032 -4.98307 0.985347
lowerback 3.22092 0.554949 -1.96337
upperback -0.1746 0.63376 -1.48384
thorax -1.98955 0.328867 -0.452686
lowerneck -8.15668 -5.16494 -9.26443
upperneck 11.2933 -6.98179 9.36537
head 5.39006 -3.23561 3.93293
rclavicle -1.21507e-014 2.10712e-014
rhumerus -32.6099 -0.72021 -83.9525
rradius 25.6616
rwrist 21.1431
rhand -23.5617 -4.72702
rfingers 7.12502
rthumb 2.90065 -34.687
lclavicle -1.21507e-014 2.10712e-014
lhumerus -34.9635 22.998 71.5813
lradius 20.2062
lwrist -8.56871
lhand -28.6717 33.386
lfingers 7.12502
lthumb -2.0346 63.3561
rfemur -1.14646 20.2772 18.8176
rtibia 13.4768
rfoot -12.7497 -19.7852
rtoes -2.77583
lfemur -0.171455 -7.44032 -21.1405
ltibia 10.8356
lfoot -10.6132 15.3469
ltoes -6.64592
